<?xml version="1.0" standalone="no"?><!DOCTYPE svg PUBLIC "-//W3C//DTD SVG 1.1//EN" "http://www.w3.org/Graphics/SVG/1.1/DTD/svg11.dtd"><svg t="1570862655527" class="icon" viewBox="0 0 1024 1024" version="1.1" xmlns="http://www.w3.org/2000/svg" p-id="4068" xmlns:xlink="http://www.w3.org/1999/xlink" width="200" height="200"><defs><style type="text/css"></style></defs><path d="M945.6 446c21.7-21.1 9.7-57.9-20.2-62.3l-244.5-35.6c-11.9-1.7-22.2-9.2-27.5-20L544.1 106.4c-13.4-27.1-52.1-27.1-65.4 0L369.3 328.2c-5.3 10.8-15.6 18.3-27.5 20L97.3 383.7c-29.9 4.4-41.9 41.2-20.2 62.3L254 618.7c8.6 8.4 12.5 20.5 10.5 32.3l-41.8 243.8c-5.1 29.8 26.2 52.6 52.9 38.5l218.7-115.1c10.6-5.6 23.3-5.6 34 0L747 933.3c26.8 14.1 58.1-8.7 52.9-38.5L758.2 651c-2-11.9 1.9-23.9 10.5-32.3L945.6 446z m-604.4 20c0-21.7 17.6-39.3 39.3-39.3 21.7 0 39.3 17.6 39.3 39.3 0 21.7-17.6 39.3-39.3 39.3-21.8 0-39.3-17.6-39.3-39.3z m312.2 171.1c-20.5 54.3-77.8 90.8-142.4 90.8-64.2 0-121.3-36.1-142.1-89.9-5.9-15.2 1.6-32.3 16.6-38.2 15-5.9 32 1.6 37.9 16.8 11.9 30.8 47.9 52.3 87.6 52.3 39.9 0 76-21.7 87.7-52.8 5.8-15.2 22.7-22.9 37.8-17.1 15.1 5.8 22.7 22.8 16.9 38.1z m-11.2-131.8c-21.7 0-39.3-17.6-39.3-39.3 0-21.7 17.6-39.3 39.3-39.3 21.7 0 39.3 17.6 39.3 39.3 0 21.7-17.6 39.3-39.3 39.3z" p-id="4069" fill="#cdcdcd"></path></svg>