<?xml version="1.0" standalone="no"?><!DOCTYPE svg PUBLIC "-//W3C//DTD SVG 1.1//EN" "http://www.w3.org/Graphics/SVG/1.1/DTD/svg11.dtd"><svg t="1570860465188" class="icon" viewBox="0 0 1024 1024" version="1.1" xmlns="http://www.w3.org/2000/svg" p-id="7826" xmlns:xlink="http://www.w3.org/1999/xlink" width="200" height="200"><defs><style type="text/css"></style></defs><path d="M987.602 1024H36.398A36.398 36.398 0 0 1 0 987.602V36.398A36.398 36.398 0 0 1 36.398 0h951.204A36.398 36.398 0 0 1 1024 36.398v951.204A36.398 36.398 0 0 1 987.602 1024zM72.796 951.204h878.408V72.796H72.796z" p-id="7827" fill="#bfbfbf"></path><path d="M140.133 324.331V145.325h46.54l85.925 109.462V145.35h46.298v179.006h-46.298l-85.949-109.437v109.437z m318.095-139.598h-55.422v29.919h52.219v39.407h-52.22v30.865h55.326v39.407H356.216V145.325h101.915z m63.478-39.408l30.866 115.625 37.975-115.625h36.956L665.48 260.95l30.938-115.625h48.53l-53.383 179.006h-47.439l-35.063-103.734-35.137 103.734h-47.56l-53.384-179.006z m336.561 45.814a57.63 57.63 0 0 0-15.19-9.148 40.402 40.402 0 0 0-14.729-2.96 23.877 23.877 0 0 0-14.729 4.27 13.322 13.322 0 0 0-5.702 11.162 11.09 11.09 0 0 0 2.839 7.838 24.775 24.775 0 0 0 7.473 5.338 63.405 63.405 0 0 0 10.435 3.907q5.823 1.674 11.526 3.567 22.785 7.595 33.365 20.286t10.555 33.122a64.449 64.449 0 0 1-4.635 24.92 52 52 0 0 1-13.54 19.122 62.41 62.41 0 0 1-21.839 12.35 90.995 90.995 0 0 1-29.312 4.393 107.811 107.811 0 0 1-62.92-20.189l19.946-37.514a80.755 80.755 0 0 0 20.65 13.758 49.598 49.598 0 0 0 20.188 4.514q11.405 0 16.986-5.218a16.185 16.185 0 0 0 4.15-18.878 15.19 15.19 0 0 0-4.854-5.46 38.072 38.072 0 0 0-8.662-4.634q-5.339-2.136-12.934-4.854-9.027-2.839-17.69-6.284a55.52 55.52 0 0 1-15.432-9.148 42.416 42.416 0 0 1-10.92-14.365 50.787 50.787 0 0 1-4.149-21.84 63.43 63.43 0 0 1 4.392-24.095 53.384 53.384 0 0 1 12.351-18.514 55.058 55.058 0 0 1 19.413-11.987 73.597 73.597 0 0 1 25.77-4.271 112.858 112.858 0 0 1 27.783 3.688 122.734 122.734 0 0 1 27.784 10.798z m-736.94 156.924v-11.866h773.266v11.866z m240.228 299.823H145.592V431.924h215.963z m-167.432-48.53h118.9V480.454h-118.9z m441.63-109.195h-174.71a24.265 24.265 0 0 1 0-48.53h174.71a24.265 24.265 0 0 1 0 48.53z m203.83 157.725h-378.54a24.265 24.265 0 0 1 0-48.53h378.54a24.265 24.265 0 0 1 0 48.53z m12.133 181.99H172.284a24.265 24.265 0 0 1 0-48.53h679.432a24.265 24.265 0 0 1 0 48.53z" p-id="7828" fill="#bfbfbf"></path></svg>