<?xml version="1.0" encoding="utf-8"?>
<!-- Generator: Adobe Illustrator 22.0.0, SVG Export Plug-In . SVG Version: 6.00 Build 0)  -->
<svg version="1.1" id="图层_1" xmlns="http://www.w3.org/2000/svg" xmlns:xlink="http://www.w3.org/1999/xlink" x="0px" y="0px"
	 viewBox="0 0 200 200" style="enable-background:new 0 0 200 200;" xml:space="preserve">
<style type="text/css">
	.st0{fill:#F5334D;}
</style>
<g>
	<rect x="99.2" y="104.1" class="st0" width="10.6" height="24"/>
	<path class="st0" d="M149.5,1h-99C23.2,1,1,23.2,1,50.5v99C1,176.8,23.2,199,50.5,199h99c27.3,0,49.5-22.2,49.5-49.5v-99
		C199,23.2,176.8,1,149.5,1z M47.3,43.9l0.2,0.3c8.3,11.1,14.8,21,19.2,29.5l0.2,0.3l-8.3,5.8l-0.2-0.4C53.3,70.1,46.8,60,39,49.7
		l-0.3-0.4L47.3,43.9z M48.1,158.1l-0.2,0.4l-9.7-4.4l0.2-0.4c7.9-17.6,15.1-36,21.2-54.9l0.1-0.4l9.1,3.7l-0.1,0.4
		C62.8,121.4,55.9,140.1,48.1,158.1z M90.3,86.3v-9.1h27.3v9.1H90.3z M91.1,96h26.7v40.2H91.1V96z M161.7,130.5
		c-0.2,20.3-3.7,30.1-10.7,30.1c-4.8,0-9.2-3.8-13.3-11.3c-1.7-2.8-3.3-6.6-4.7-11.2c-6.9,9.6-14.8,17.2-23.6,22.5l-0.3,0.2l-6.3-8
		l0.4-0.3c10.3-5.9,19.2-14.9,26.4-26.6c-1.1-4-2.2-9.7-3.4-16.9c-2.2-13.1-3.7-27.4-4.5-42.5H84.5V103
		c-0.5,24.1-5.7,43.7-15.4,58.2l-0.3,0.4l-7.7-6.9l0.2-0.3c8.6-12.2,13.2-29.5,13.6-51.5V56.6h46.1c-0.2-4-0.2-9.9-0.2-17.6v-0.4
		h9.8v0.4c0,5.8,0.1,11.7,0.4,17.6h12.5c-2-4.5-4.4-8.7-6.9-12.5l-0.4-0.6l8.8-1.5l0.2,0.3c2.3,4,4.5,8.8,6.7,14.3h6.5v9.8h-27
		c0.5,12,1.5,23.8,2.9,34.8c0.5,4.3,1.1,8.4,1.7,12c4.7-10.8,8.3-22.9,10.7-35.9l0.1-0.5l9,3.8l-0.1,0.4c-4,18.5-9.6,34.4-16.6,47.3
		c1,4.3,2.2,8.2,3.5,11.5c3.5,8.4,6.1,10.4,7.6,10.6c0.6-0.1,2.3-2.4,2.6-23.6l0-0.7l8.7,4L161.7,130.5z"/>
</g>
</svg>
