<?xml version="1.0" standalone="no"?><!DOCTYPE svg PUBLIC "-//W3C//DTD SVG 1.1//EN" "http://www.w3.org/Graphics/SVG/1.1/DTD/svg11.dtd"><svg t="1566283325996" class="icon" viewBox="0 0 1024 1024" version="1.1" xmlns="http://www.w3.org/2000/svg" p-id="16197" xmlns:xlink="http://www.w3.org/1999/xlink" width="200" height="200"><defs><style type="text/css"></style></defs><path d="M790.24 281.76l1.248 604.192c0 31.712-13.088 48.672-44.896 48.672l-461.504-1.28c-31.776 0-45.792-14.496-45.792-46.144l0-605.44-71.52 0 0 605.728c0 63.552 51.712 115.2 115.232 115.2l460.8 0c63.552 0 115.232-51.68 115.232-115.2l0-605.728-68.864 0zM335.744 411.392l0 428.928c0 2.784 0.416 5.472 1.12 8.032 21.088 0 42.208-0.032 63.328-0.192 0.672-2.464 1.088-5.152 1.088-7.84l0-428.736c-21.856-0.096-43.68-0.16-65.536-0.192l0 0zM624.992 412.928l0 427.424c0 2.208 0.256 4.384 0.704 6.496 21.344-0.128 42.72-0.16 64.032-0.224 0.448-2.048 0.672-4.096 0.672-6.336l0-427.168c-21.792-0.032-43.616-0.096-65.408-0.192l0 0zM978.912 165.664l-255.904 0 0-72.192c1.12-58.112-46.752-72.128-94.528-72.128l-229.952 0c-59.36 0-93.216 22.304-93.216 70.112l-0.256 74.208-259.968 0 0 70.496 933.792 0 0-70.496 0.032 0zM657.504 165.664l-288.032 0 0-50.496c0-16 11.296-29.92 27.296-29.92l230.432 1.248c16 0 30.08 11.488 30.08 27.488l0.224 51.68zM482.688 412.96l0 427.36c0 2.208 0.256 4.416 0.704 6.496 21.152-0.096 42.304-0.16 63.456-0.16 0.448-2.08 0.672-4.096 0.672-6.336l0-427.168c-21.632-0.032-43.232-0.096-64.864-0.192l0 0z" p-id="16198" fill="#8a8a8a"></path></svg>